<svg width="138" height="111" viewBox="0 0 138 111" fill="none" xmlns="http://www.w3.org/2000/svg">
<path d="M60.375 6.93745C57.5072 6.93745 55.2 9.25718 55.2 12.1406C55.2 15.024 57.5072 17.3437 60.375 17.3437H72.8166L76.3528 23.9126L55.2 41.625L45.4322 31.8041C42.8447 29.2025 39.33 27.75 35.6644 27.75H13.8C9.98344 27.75 6.9 30.8501 6.9 34.6875V41.625H27.6C46.6613 41.625 62.1 57.1476 62.1 76.3125C62.1 78.6972 61.8628 81.0169 61.41 83.25H76.59C76.1372 81.0169 75.9 78.6972 75.9 76.3125C75.9 64.9957 81.2906 54.9363 89.6353 48.6058L92.9559 54.8062C86.7675 59.9009 82.8 67.6406 82.8 76.3125C82.8 91.64 95.1553 104.062 110.4 104.062C125.645 104.062 138 91.64 138 76.3125C138 60.9849 125.645 48.5625 110.4 48.5625C107.489 48.5625 104.686 49.0177 102.055 49.8632L90.1744 27.75H103.5C107.317 27.75 110.4 24.6498 110.4 20.8125V13.875C110.4 10.0376 107.317 6.93745 103.5 6.93745H99.1013C97.4841 6.93745 95.9316 7.50112 94.6809 8.54175L84.4603 17.1052L81.4416 11.4685C79.9322 8.67183 77.0213 6.91577 73.8516 6.91577H60.375V6.93745ZM99.7697 67.4671L105.85 78.7839C107.209 81.3205 110.357 82.2527 112.858 80.8869C115.359 79.521 116.308 76.3558 114.95 73.841L108.869 62.5242C109.365 62.4591 109.883 62.4375 110.4 62.4375C118.012 62.4375 124.2 68.6595 124.2 76.3125C124.2 83.9654 118.012 90.1875 110.4 90.1875C102.788 90.1875 96.6 83.9654 96.6 76.3125C96.6 72.9521 97.7859 69.8736 99.7697 67.4671ZM40.3866 81.5156C38.3381 86.6103 33.3788 90.1875 27.6 90.1875C19.9884 90.1875 13.8 83.9654 13.8 76.3125C13.8 68.6595 19.9884 62.4375 27.6 62.4375C33.4003 62.4375 38.3597 66.0146 40.3866 71.1093H54.7041C52.2891 58.275 41.0766 48.5625 27.6 48.5625C12.3553 48.5625 0 60.9849 0 76.3125C0 91.64 12.3553 104.062 27.6 104.062C41.0766 104.062 52.2891 94.35 54.7256 81.5156H40.3866ZM27.6 83.25C29.43 83.25 31.185 82.519 32.479 81.218C33.773 79.917 34.5 78.1524 34.5 76.3125C34.5 74.4725 33.773 72.7079 32.479 71.4069C31.185 70.1059 29.43 69.375 27.6 69.375C25.77 69.375 24.015 70.1059 22.721 71.4069C21.427 72.7079 20.7 74.4725 20.7 76.3125C20.7 78.1524 21.427 79.917 22.721 81.218C24.015 82.519 25.77 83.25 27.6 83.25Z" fill="#395346"/>
</svg>
