<svg width="118" height="116" viewBox="0 0 118 116" fill="none" xmlns="http://www.w3.org/2000/svg">
<g clip-path="url(#clip0_639_30)">
<path d="M59 9.66675C86.1548 9.66675 108.167 31.3056 108.167 58.0001C108.173 65.5042 106.399 72.9063 102.986 79.6185C99.5729 86.3307 94.6146 92.1681 88.5049 96.6668H98.3334C99.6373 96.6668 100.888 97.176 101.81 98.0824C102.732 98.9888 103.25 100.218 103.25 101.5C103.25 102.782 102.732 104.011 101.81 104.918C100.888 105.824 99.6373 106.333 98.3334 106.333H59C31.8453 106.333 9.83337 84.6946 9.83337 58.0001C9.83337 31.3056 31.8453 9.66675 59 9.66675ZM59 67.6667C56.3921 67.6667 53.8909 68.6852 52.0468 70.4981C50.2027 72.3109 49.1667 74.7697 49.1667 77.3334C49.1667 79.8972 50.2027 82.3559 52.0468 84.1688C53.8909 85.9816 56.3921 87.0001 59 87.0001C61.608 87.0001 64.1091 85.9816 65.9532 84.1688C67.7974 82.3559 68.8334 79.8972 68.8334 77.3334C68.8334 74.7697 67.7974 72.3109 65.9532 70.4981C64.1091 68.6852 61.608 67.6667 59 67.6667ZM39.3334 48.3334C36.7254 48.3334 34.2243 49.3519 32.3802 51.1647C30.536 52.9776 29.5 55.4363 29.5 58.0001C29.5 60.5638 30.536 63.0226 32.3802 64.8354C34.2243 66.6483 36.7254 67.6667 39.3334 67.6667C41.9413 67.6667 44.4425 66.6483 46.2866 64.8354C48.1307 63.0226 49.1667 60.5638 49.1667 58.0001C49.1667 55.4363 48.1307 52.9776 46.2866 51.1647C44.4425 49.3519 41.9413 48.3334 39.3334 48.3334ZM78.6667 48.3334C76.0587 48.3334 73.5576 49.3519 71.7135 51.1647C69.8694 52.9776 68.8334 55.4363 68.8334 58.0001C68.8334 60.5638 69.8694 63.0226 71.7135 64.8354C73.5576 66.6483 76.0587 67.6667 78.6667 67.6667C81.2747 67.6667 83.7758 66.6483 85.6199 64.8354C87.464 63.0226 88.5 60.5638 88.5 58.0001C88.5 55.4363 87.464 52.9776 85.6199 51.1647C83.7758 49.3519 81.2747 48.3334 78.6667 48.3334ZM59 29.0001C56.3921 29.0001 53.8909 30.0185 52.0468 31.8314C50.2027 33.6442 49.1667 36.103 49.1667 38.6667C49.1667 41.2305 50.2027 43.6893 52.0468 45.5021C53.8909 47.315 56.3921 48.3334 59 48.3334C61.608 48.3334 64.1091 47.315 65.9532 45.5021C67.7974 43.6893 68.8334 41.2305 68.8334 38.6667C68.8334 36.103 67.7974 33.6442 65.9532 31.8314C64.1091 30.0185 61.608 29.0001 59 29.0001Z" fill="#445E51"/>
</g>
<defs>
<clipPath id="clip0_639_30">
<rect width="118" height="116" fill="white"/>
</clipPath>
</defs>
</svg>
