<svg width="107" height="111" viewBox="0 0 107 111" fill="none" xmlns="http://www.w3.org/2000/svg">
<g clip-path="url(#clip0_639_36)">
<path d="M36.7813 20.8125V6.9375C36.7813 6.01753 37.1335 5.13524 37.7606 4.48472C38.3877 3.83421 39.2382 3.46875 40.125 3.46875C41.0118 3.46875 41.8623 3.83421 42.4894 4.48472C43.1165 5.13524 43.4688 6.01753 43.4688 6.9375V20.8125C43.4688 21.7325 43.1165 22.6148 42.4894 23.2653C41.8623 23.9158 41.0118 24.2812 40.125 24.2812C39.2382 24.2812 38.3877 23.9158 37.7606 23.2653C37.1335 22.6148 36.7813 21.7325 36.7813 20.8125ZM53.5 24.2812C54.3868 24.2812 55.2373 23.9158 55.8644 23.2653C56.4915 22.6148 56.8438 21.7325 56.8438 20.8125V6.9375C56.8438 6.01753 56.4915 5.13524 55.8644 4.48472C55.2373 3.83421 54.3868 3.46875 53.5 3.46875C52.6132 3.46875 51.7627 3.83421 51.1356 4.48472C50.5085 5.13524 50.1563 6.01753 50.1563 6.9375V20.8125C50.1563 21.7325 50.5085 22.6148 51.1356 23.2653C51.7627 23.9158 52.6132 24.2812 53.5 24.2812ZM66.875 24.2812C67.7618 24.2812 68.6123 23.9158 69.2394 23.2653C69.8665 22.6148 70.2188 21.7325 70.2188 20.8125V6.9375C70.2188 6.01753 69.8665 5.13524 69.2394 4.48472C68.6123 3.83421 67.7618 3.46875 66.875 3.46875C65.9882 3.46875 65.1377 3.83421 64.5106 4.48472C63.8835 5.13524 63.5313 6.01753 63.5313 6.9375V20.8125C63.5313 21.7325 63.8835 22.6148 64.5106 23.2653C65.1377 23.9158 65.9882 24.2812 66.875 24.2812ZM106.331 39.5437C105.799 38.8078 105.007 38.3212 104.129 38.1911C103.251 38.061 102.359 38.298 101.65 38.85L93.625 45.0938V38.1562C93.625 36.3163 92.9204 34.5517 91.6663 33.2507C90.4121 31.9497 88.7111 31.2188 86.9375 31.2188H20.0625C18.2889 31.2188 16.5879 31.9497 15.3337 33.2507C14.0796 34.5517 13.375 36.3163 13.375 38.1562V45.0938L5.35001 38.85C4.64056 38.298 3.74879 38.061 2.87089 38.1911C1.99298 38.3212 1.20085 38.8078 0.668764 39.5437C0.136673 40.2797 -0.0917949 41.2048 0.03362 42.1156C0.159035 43.0263 0.62806 43.848 1.33751 44.4L13.375 53.7656V79.7812C13.375 83.4611 14.7842 86.9903 17.2925 89.5924C19.8008 92.1944 23.2027 93.6562 26.75 93.6562H80.25C83.7973 93.6562 87.1993 92.1944 89.7076 89.5924C92.2159 86.9903 93.625 83.4611 93.625 79.7812V53.7656L105.663 44.4C106.014 44.1267 106.31 43.7843 106.533 43.3923C106.757 43.0003 106.904 42.5665 106.966 42.1156C107.029 41.6646 107.004 41.2054 106.895 40.7641C106.786 40.3228 106.595 39.9082 106.331 39.5437Z" fill="#395346"/>
</g>
<defs>
<clipPath id="clip0_639_36">
<rect width="107" height="111" fill="white"/>
</clipPath>
</defs>
</svg>
