<svg width="107" height="91" viewBox="0 0 107 91" fill="none" xmlns="http://www.w3.org/2000/svg">
<path d="M36.7813 17.8125V3.9375C36.7813 3.01753 37.1335 2.13524 37.7606 1.48472C38.3877 0.834206 39.2382 0.46875 40.125 0.46875C41.0118 0.46875 41.8623 0.834206 42.4894 1.48472C43.1165 2.13524 43.4688 3.01753 43.4688 3.9375V17.8125C43.4688 18.7325 43.1165 19.6148 42.4894 20.2653C41.8623 20.9158 41.0118 21.2812 40.125 21.2812C39.2382 21.2812 38.3877 20.9158 37.7606 20.2653C37.1335 19.6148 36.7813 18.7325 36.7813 17.8125ZM53.5 21.2812C54.3868 21.2812 55.2373 20.9158 55.8644 20.2653C56.4915 19.6148 56.8438 18.7325 56.8438 17.8125V3.9375C56.8438 3.01753 56.4915 2.13524 55.8644 1.48472C55.2373 0.834206 54.3868 0.46875 53.5 0.46875C52.6132 0.46875 51.7627 0.834206 51.1356 1.48472C50.5085 2.13524 50.1563 3.01753 50.1563 3.9375V17.8125C50.1563 18.7325 50.5085 19.6148 51.1356 20.2653C51.7627 20.9158 52.6132 21.2812 53.5 21.2812ZM66.875 21.2812C67.7618 21.2812 68.6123 20.9158 69.2394 20.2653C69.8665 19.6148 70.2188 18.7325 70.2188 17.8125V3.9375C70.2188 3.01753 69.8665 2.13524 69.2394 1.48472C68.6123 0.834206 67.7618 0.46875 66.875 0.46875C65.9882 0.46875 65.1377 0.834206 64.5106 1.48472C63.8835 2.13524 63.5313 3.01753 63.5313 3.9375V17.8125C63.5313 18.7325 63.8835 19.6148 64.5106 20.2653C65.1377 20.9158 65.9882 21.2812 66.875 21.2812ZM106.331 36.5437C105.799 35.8078 105.007 35.3212 104.129 35.1911C103.251 35.061 102.359 35.298 101.65 35.85L93.625 42.0938V35.1562C93.625 33.3163 92.9204 31.5517 91.6663 30.2507C90.4121 28.9497 88.7111 28.2188 86.9375 28.2188H20.0625C18.2889 28.2188 16.5879 28.9497 15.3337 30.2507C14.0796 31.5517 13.375 33.3163 13.375 35.1562V42.0938L5.35001 35.85C4.64056 35.298 3.74879 35.061 2.87089 35.1911C1.99298 35.3212 1.20085 35.8078 0.668764 36.5437C0.136673 37.2797 -0.0917949 38.2048 0.03362 39.1156C0.159035 40.0263 0.62806 40.848 1.33751 41.4L13.375 50.7656V76.7812C13.375 80.4611 14.7842 83.9903 17.2925 86.5924C19.8008 89.1944 23.2027 90.6562 26.75 90.6562H80.25C83.7973 90.6562 87.1993 89.1944 89.7076 86.5924C92.2159 83.9903 93.625 80.4611 93.625 76.7812V50.7656L105.663 41.4C106.014 41.1267 106.31 40.7843 106.533 40.3923C106.757 40.0003 106.904 39.5665 106.966 39.1156C107.029 38.6646 107.004 38.2054 106.895 37.7641C106.786 37.3228 106.595 36.9082 106.331 36.5437Z" fill="#A64087"/>
</svg>
